<svg width="44" height="44" fill="none" xmlns="http://www.w3.org/2000/svg">
  <rect width="44" height="44" rx="8" fill="#3AB44A"/>
  <path d="M25.6 17.2a3.6 3.6 0 1 1-7.2 0 3.6 3.6 0 0 1 7.2 0ZM31.6 19.6a2.4 2.4 0 1 1-4.8 0 2.4 2.4 0 0 1 4.8 0ZM26.8 28a4.8 4.8 0 0 0-9.6 0v3.6h9.6V28ZM17.2 19.6a2.4 2.4 0 1 1-4.8 0 2.4 2.4 0 0 1 4.8 0ZM29.2 31.6V28a7.167 7.167 0 0 0-.9-3.487A3.6 3.6 0 0 1 32.8 28v3.6h-3.6ZM15.7 24.513A7.167 7.167 0 0 0 14.8 28v3.6h-3.6V28a3.6 3.6 0 0 1 4.5-3.487Z" fill="#fff"/>
</svg>