<svg width="44" height="44" fill="none" xmlns="http://www.w3.org/2000/svg">
  <path d="M0 8a8 8 0 0 1 8-8h28a8 8 0 0 1 8 8v28a8 8 0 0 1-8 8H8a8 8 0 0 1-8-8V8Z" fill="#3AB44A"/>
  <path d="M19.2 29a1.8 1.8 0 1 1-3.6 0 1.8 1.8 0 0 1 3.6 0ZM27.6 29a1.8 1.8 0 1 1-3.6 0 1.8 1.8 0 0 1 3.6 0Z" fill="#fff"/>
  <path d="M13.2 14a1.2 1.2 0 0 0-1.2 1.2v12a1.2 1.2 0 0 0 1.2 1.2h1.26a3.001 3.001 0 0 1 5.88 0h1.26a1.2 1.2 0 0 0 1.2-1.2v-12a1.2 1.2 0 0 0-1.2-1.2h-8.4ZM26.4 17.6a1.2 1.2 0 0 0-1.2 1.2v7.26a3.001 3.001 0 0 1 3.54 2.34H30a1.2 1.2 0 0 0 1.2-1.2v-6a1.2 1.2 0 0 0-.351-.848l-2.4-2.4a1.2 1.2 0 0 0-.849-.352h-1.2Z" fill="#fff"/>
</svg>