<svg width="854" height="168" fill="none" xmlns="http://www.w3.org/2000/svg">
  <path d="M0 0h854v154c0 7.732-6.268 14-14 14H14c-7.732 0-14-6.268-14-14V0Z" fill="#F0FDF4"/>
  <mask id="a" style="mask-type:alpha" maskUnits="userSpaceOnUse" x="0" y="0" width="854" height="168">
    <path opacity=".18" d="M0 0h854v154c0 7.732-6.268 14-14 14H14c-7.732 0-14-6.268-14-14V0Z" fill="#F0FDF4"/>
  </mask>
  <g mask="url(#a)">
    <path d="M-31.746 99.383c6.9-29.353 37.77-88.692 106.04-91.228 85.337-3.17 48.981 110.953 243.893 127.155C513.099 151.513 692.358 62.75 637.823-4.878c-35.297-43.771-218.14-50.017-281.259 27.122-63.12 77.139 39.386 195.488 238.843 154.277 159.565-32.969 260.051-89.584 290.348-113.77" stroke="#3AB44A"/>
  </g>
</svg>