<svg width="50" height="50" viewBox="0 0 50 50" fill="none" xmlns="http://www.w3.org/2000/svg">
<rect width="50" height="50" rx="25" fill="#F0FDF4"/>
<path fill-rule="evenodd" clip-rule="evenodd" d="M17.6298 16.957C17.6298 16.0596 18.3573 15.332 19.2548 15.332L33.0433 15.332C33.9408 15.332 34.6683 16.0596 34.6683 16.957L34.6683 30.7456C34.6683 31.6431 33.9408 32.3706 33.0433 32.3706C32.1459 32.3706 31.4183 31.6431 31.4183 30.7456L31.4183 20.8801L18.1057 34.1928C17.4711 34.8274 16.4422 34.8274 15.8076 34.1928C15.173 33.5582 15.173 32.5293 15.8076 31.8947L29.1202 18.582L19.2548 18.582C18.3573 18.582 17.6298 17.8545 17.6298 16.957Z" fill="#3AB44A"/>
</svg>
