<svg width="50" height="50" viewBox="0 0 50 50" fill="none" xmlns="http://www.w3.org/2000/svg">
<rect width="50" height="50" rx="25" fill="#F0FDF4"/>
<path fill-rule="evenodd" clip-rule="evenodd" d="M31.9952 33.043C31.9952 33.9404 31.2677 34.668 30.3702 34.668L16.5817 34.668C15.6842 34.668 14.9567 33.9404 14.9567 33.043L14.9567 19.2544C14.9567 18.3569 15.6842 17.6294 16.5817 17.6294C17.4791 17.6294 18.2067 18.3569 18.2067 19.2544L18.2067 29.1199L31.5193 15.8072C32.1539 15.1726 33.1828 15.1726 33.8174 15.8072C34.452 16.4418 34.452 17.4707 33.8174 18.1053L20.5048 31.418L30.3702 31.418C31.2677 31.418 31.9952 32.1455 31.9952 33.043Z" fill="#3AB44A"/>
</svg>
