<svg width="36" height="38" viewBox="0 0 36 38" fill="none" xmlns="http://www.w3.org/2000/svg">
<path d="M17.2765 29.7684H23.295L21.6039 28.0772C21.1452 27.6186 20.8876 26.9966 20.8876 26.348V22.5461C20.8876 19.4015 18.8779 16.7263 16.0728 15.7349V15.3239C16.0728 13.9943 14.9949 12.9165 13.6654 12.9165C12.3358 12.9165 11.258 13.9943 11.258 15.3239V15.7349C8.45287 16.7263 6.44314 19.4015 6.44314 22.5461V26.348C6.44314 26.9966 6.18549 27.6186 5.72686 28.0772L4.03574 29.7684H10.0543M17.2765 29.7684V30.9721C17.2765 32.9664 15.6597 34.5832 13.6654 34.5832C11.671 34.5832 10.0543 32.9664 10.0543 30.9721V29.7684M17.2765 29.7684H10.0543" stroke="#374151" stroke-width="2.225" stroke-linecap="round" stroke-linejoin="round"/>
<rect x="13" y="0.916504" width="23" height="23" rx="11.5" fill="#DD2747"/>
<path d="M20.5572 16.9165V15.5841L24.092 12.1189C24.43 11.7775 24.7118 11.4743 24.9371 11.2091C25.1625 10.944 25.3316 10.6871 25.4442 10.4385C25.5569 10.1899 25.6133 9.92479 25.6133 9.64307C25.6133 9.32157 25.5404 9.04648 25.3945 8.81778C25.2487 8.58577 25.0482 8.4068 24.793 8.28085C24.5378 8.1549 24.2478 8.09193 23.9229 8.09193C23.5882 8.09193 23.2949 8.16153 23.043 8.30074C22.7911 8.43663 22.5955 8.63052 22.4563 8.88241C22.3204 9.13431 22.2525 9.43426 22.2525 9.78227H20.4975C20.4975 9.13596 20.645 8.57417 20.94 8.0969C21.235 7.61963 21.641 7.25007 22.158 6.98824C22.6784 6.7264 23.275 6.59548 23.9478 6.59548C24.6306 6.59548 25.2305 6.72308 25.7475 6.97829C26.2646 7.2335 26.6656 7.58317 26.9506 8.0273C27.239 8.47143 27.3832 8.97853 27.3832 9.54861C27.3832 9.92976 27.3103 10.3043 27.1644 10.6722C27.0186 11.0401 26.7617 11.4478 26.3938 11.8952C26.0292 12.3426 25.5172 12.8845 24.8576 13.5209L23.1026 15.3057V15.3753H27.5373V16.9165H20.5572Z" fill="white"/>
</svg>
