<svg width="16" height="18" fill="none" xmlns="http://www.w3.org/2000/svg">
  <path d="M8.833 15.667H3a.833.833 0 0 1-.833-.834V3.167A.833.833 0 0 1 3 2.333h4.167v2.5a2.5 2.5 0 0 0 2.5 2.5h2.5V9a.834.834 0 0 0 1.666 0V6.45a1.084 1.084 0 0 0-.05-.225V6.15a.89.89 0 0 0-.158-.233l-5-5a.892.892 0 0 0-.233-.159.267.267 0 0 0-.075 0 .733.733 0 0 0-.275-.091H3a2.5 2.5 0 0 0-2.5 2.5v11.666a2.5 2.5 0 0 0 2.5 2.5h5.833a.833.833 0 1 0 0-1.666Zm0-12.159 2.159 2.159H9.667a.833.833 0 0 1-.834-.834V3.508ZM4.667 5.667a.833.833 0 1 0 0 1.666H5.5a.833.833 0 0 0 0-1.666h-.833Zm5 3.333h-5a.833.833 0 1 0 0 1.667h5a.833.833 0 1 0 0-1.667Zm5.591 4.408-1.666-1.666a.835.835 0 0 0-.275-.175.834.834 0 0 0-.634 0 .835.835 0 0 0-.275.175l-1.666 1.666a.837.837 0 1 0 1.183 1.184l.242-.25V16.5a.833.833 0 1 0 1.666 0v-2.158l.242.25a.832.832 0 0 0 1.183 0 .833.833 0 0 0 0-1.184ZM8 14a.833.833 0 0 0 0-1.667H4.667a.833.833 0 1 0 0 1.667H8Z" fill="#fff"/>
</svg>